<?xml version="1.0" encoding="UTF-8"?>
<svg width="78px" height="32px" viewBox="0 0 78 32" version="1.1" xmlns="http://www.w3.org/2000/svg" xmlns:xlink="http://www.w3.org/1999/xlink">
    <title>Artboard</title>
    <g id="Artboard" stroke="none" stroke-width="1" fill="none" fill-rule="evenodd">
        <g id="amazon-logo-squid-menu" transform="translate(0, 5)" fill="#161D26" fill-rule="nonzero">
            <path d="M3.81383,13.85108 C3.05851,13.85108 2.39362,13.68618 1.81915,13.35638 C1.24468,13.01598 0.79787,12.54788 0.478723,11.95208 C0.159574,11.34578 0,10.64898 0,9.86168 C0,8.91488 0.234043,8.08508 0.70213,7.37238 C1.18085,6.65958 1.85638,6.11168 2.72872,5.72868 C3.6117,5.34578 4.64362,5.15428 5.82447,5.15428 C6.36702,5.15428 6.80851,5.19148 7.14894,5.26598 L7.14894,4.93088 C7.14894,4.12234 7,3.52127 6.70213,3.12766 C6.40426,2.7234 5.95213,2.52127 5.34574,2.52127 C4.36702,2.52127 3.73936,3.03723 3.46277,4.06914 C3.37766,4.36702 3.20213,4.49468 2.93617,4.45212 L0.76596,4.06914 C0.60638,4.03723 0.494681,3.96808 0.430851,3.8617 C0.37766,3.75531 0.37234,3.6117 0.414894,3.43085 C0.69149,2.34574 1.2766,1.50531 2.17021,0.90957 C3.07447,0.30319 4.20745,0 5.56915,0 C7.18617,0 8.41489,0.43617 9.25532,1.30851 C10.1064,2.18085 10.5319,3.45212 10.5319,5.12238 L10.5319,13.14898 C10.5319,13.26598 10.4894,13.36698 10.4043,13.45208 C10.3298,13.52658 10.234,13.56378 10.117,13.56378 L8.04255,13.56378 C7.78723,13.56378 7.62766,13.42548 7.56383,13.14898 L7.24468,11.64898 L7.11702,11.64898 C6.82979,12.35108 6.39894,12.89358 5.82447,13.27658 C5.26064,13.65958 4.59043,13.85108 3.81383,13.85108 Z M3.47872,9.47868 C3.47872,10.04258 3.62234,10.49468 3.90957,10.83508 C4.20745,11.16488 4.60638,11.32978 5.10638,11.32978 C5.76596,11.32978 6.27128,11.03718 6.62234,10.45208 C6.9734,9.85638 7.14894,9.00528 7.14894,7.89898 L7.14894,7.05318 C6.85106,6.99998 6.56915,6.97338 6.30319,6.97338 C5.43085,6.97338 4.73936,7.20208 4.22872,7.65958 C3.72872,8.10638 3.47872,8.71278 3.47872,9.47868 Z M12.5106,0.70212 C12.5106,0.5851 12.5479,0.48936 12.6223,0.41489 C12.7074,0.32978 12.8085,0.28723 12.9255,0.28723 L15.0319,0.28723 C15.1489,0.28723 15.2447,0.32446 15.3191,0.39893 C15.4043,0.4734 15.4574,0.57446 15.4787,0.70212 L15.7979,2.26595 L15.9255,2.26595 C16.2128,1.53191 16.6223,0.9734 17.1543,0.59042 C17.6968,0.1968 18.3351,0 19.0691,0 C19.8564,0 20.5319,0.20744 21.0957,0.62234 C21.6702,1.03723 22.1117,1.62766 22.4202,2.39361 L22.5479,2.39361 C23.016,1.5851 23.5426,0.98404 24.1277,0.59042 C24.7128,0.1968 25.367,0 26.0904,0 C26.8777,0 27.5585,0.21276 28.133,0.63829 C28.7181,1.06383 29.1649,1.67021 29.4734,2.45744 C29.7819,3.24468 29.9362,4.17553 29.9362,5.24998 L29.9362,13.14898 C29.9362,13.26598 29.8936,13.36698 29.8085,13.45208 C29.734,13.52658 29.6383,13.56378 29.5213,13.56378 L26.9681,13.56378 C26.8511,13.56378 26.75,13.52658 26.6649,13.45208 C26.5904,13.36698 26.5532,13.26598 26.5532,13.14898 L26.5532,5.50528 C26.5532,4.72868 26.4043,4.13297 26.1064,3.71808 C25.8085,3.30319 25.3777,3.09574 24.8138,3.09574 C24.1968,3.09574 23.7234,3.34042 23.3936,3.82978 C23.0745,4.31914 22.9149,5.02658 22.9149,5.95208 L22.9149,13.14898 C22.9149,13.26598 22.8723,13.36698 22.7872,13.45208 C22.7128,13.52658 22.617,13.56378 22.5,13.56378 L19.9468,13.56378 C19.8298,13.56378 19.7287,13.52658 19.6436,13.45208 C19.5691,13.36698 19.5319,13.26598 19.5319,13.14898 L19.5319,5.50528 C19.5319,4.72868 19.383,4.13297 19.0851,3.71808 C18.7872,3.30319 18.3564,3.09574 17.7926,3.09574 C17.1755,3.09574 16.7021,3.34042 16.3723,3.82978 C16.0532,4.31914 15.8936,5.02658 15.8936,5.95208 L15.8936,13.14898 C15.8936,13.26598 15.8511,13.36698 15.766,13.45208 C15.6915,13.52658 15.5957,13.56378 15.4787,13.56378 L12.9255,13.56378 C12.8085,13.56378 12.7074,13.52658 12.6223,13.45208 C12.5479,13.36698 12.5106,13.26598 12.5106,13.14898 L12.5106,0.70212 Z M31.5957,9.86168 C31.5957,8.91488 31.8298,8.08508 32.2979,7.37238 C32.7766,6.65958 33.4521,6.11168 34.3245,5.72868 C35.2074,5.34578 36.2394,5.15428 37.4202,5.15428 C37.9628,5.15428 38.4043,5.19148 38.7447,5.26598 L38.7447,4.93088 C38.7447,4.12234 38.5957,3.52127 38.2979,3.12766 C38,2.7234 37.5479,2.52127 36.9415,2.52127 C35.9628,2.52127 35.3351,3.03723 35.0585,4.06914 C34.9734,4.36702 34.7979,4.49468 34.5319,4.45212 L32.3617,4.06914 C32.2021,4.03723 32.0904,3.96808 32.0266,3.8617 C31.9734,3.75531 31.9681,3.6117 32.0106,3.43085 C32.2872,2.34574 32.8723,1.50531 33.766,0.90957 C34.6702,0.30319 35.8032,0 37.1649,0 C38.7819,0 40.0106,0.43617 40.8511,1.30851 C41.7021,2.18085 42.1277,3.45212 42.1277,5.12238 L42.1277,13.14898 C42.1277,13.26598 42.0851,13.36698 42,13.45208 C41.9255,13.52658 41.8298,13.56378 41.7128,13.56378 L39.6383,13.56378 C39.383,13.56378 39.2234,13.42548 39.1596,13.14898 L38.8404,11.64898 L38.7128,11.64898 C38.4255,12.35108 37.9947,12.89358 37.4202,13.27658 C36.8564,13.65958 36.1862,13.85108 35.4096,13.85108 C34.633,13.85108 33.9894,13.68618 33.4149,13.35638 C32.8404,13.01598 32.3936,12.54788 32.0745,11.95208 C31.7553,11.34578 31.5957,10.64898 31.5957,9.86168 Z M35.0745,9.47868 C35.0745,10.04258 35.2181,10.49468 35.5053,10.83508 C35.8032,11.16488 36.2021,11.32978 36.7021,11.32978 C37.3617,11.32978 37.867,11.03718 38.2181,10.45208 C38.5691,9.85638 38.7447,9.00528 38.7447,7.89898 L38.7447,7.05318 C38.4468,6.99998 38.1649,6.97338 37.8989,6.97338 C37.0266,6.97338 36.3351,7.20208 35.8245,7.65958 C35.3245,8.10638 35.0745,8.71278 35.0745,9.47868 Z M43.8511,11.21808 C43.8511,10.98408 43.9149,10.78188 44.0426,10.61168 L49.5,2.96808 L44.3936,2.96808 C44.2766,2.96808 44.1755,2.93085 44.0904,2.85638 C44.016,2.77127 43.9787,2.67021 43.9787,2.55319 L43.9787,0.70212 C43.9787,0.5851 44.016,0.48936 44.0904,0.41489 C44.1755,0.32978 44.2766,0.28723 44.3936,0.28723 L52.7872,0.28723 C52.9043,0.28723 53,0.32978 53.0745,0.41489 C53.1596,0.48936 53.2021,0.5851 53.2021,0.70212 L53.2021,2.63297 C53.2021,2.86702 53.1383,3.06914 53.0106,3.23936 L48.0638,10.03718 C48.3617,9.98408 48.6649,9.95748 48.9734,9.95748 C49.7394,9.95748 50.4415,10.02658 51.0798,10.16488 C51.7287,10.29258 52.3989,10.50528 53.0904,10.80318 C53.3351,10.90958 53.4574,11.09038 53.4574,11.34578 L53.4574,13.18088 C53.4574,13.35108 53.4043,13.46808 53.2979,13.53188 C53.1915,13.58508 53.0585,13.57978 52.8989,13.51598 C52.1011,13.21808 51.3936,13.01068 50.7766,12.89358 C50.1702,12.76598 49.5053,12.70208 48.7819,12.70208 C48.0585,12.70208 47.367,12.76598 46.6755,12.89358 C45.9947,13.02128 45.2394,13.22868 44.4096,13.51598 C44.25,13.56918 44.117,13.56918 44.0106,13.51598 C43.9043,13.45208 43.8511,13.34038 43.8511,13.18088 L43.8511,11.21808 Z M54.1596,6.92548 C54.1596,5.62768 54.4096,4.45212 54.9096,3.39893 C55.4096,2.3351 56.0957,1.50531 56.9681,0.90957 C57.8511,0.30319 58.8298,0 59.9042,0 C60.9787,0 61.9681,0.30319 62.8404,0.90957 C63.7234,1.50531 64.4149,2.3351 64.9149,3.39893 C65.4255,4.45212 65.6809,5.62768 65.6809,6.92548 C65.6809,8.22338 65.4255,9.40428 64.9149,10.46808 C64.4149,11.52128 63.7234,12.35108 62.8404,12.95748 C61.9681,13.55318 60.9894,13.85108 59.9042,13.85108 C58.8191,13.85108 57.8511,13.55318 56.9681,12.95748 C56.0957,12.35108 55.4096,11.52128 54.9096,10.46808 C54.4096,9.40428 54.1596,8.22338 54.1596,6.92548 Z M57.6702,6.92548 C57.6702,8.27658 57.8617,9.31918 58.2447,10.05318 C58.6277,10.77658 59.1808,11.13828 59.9042,11.13828 C60.6277,11.13828 61.1862,10.77658 61.5798,10.05318 C61.9734,9.31918 62.1702,8.27658 62.1702,6.92548 C62.1702,5.57448 61.9734,4.53723 61.5798,3.81383 C61.1862,3.07978 60.6277,2.71276 59.9042,2.71276 C59.1808,2.71276 58.6277,3.07978 58.2447,3.81383 C57.8617,4.53723 57.6702,5.57448 57.6702,6.92548 Z M67.4042,0.70212 C67.4042,0.5851 67.4415,0.48936 67.516,0.41489 C67.6011,0.32978 67.7021,0.28723 67.8191,0.28723 L69.9255,0.28723 C70.0425,0.28723 70.1383,0.32446 70.2128,0.39893 C70.2979,0.4734 70.3511,0.57446 70.3723,0.70212 L70.6915,2.26595 L70.8191,2.26595 C71.1064,1.54255 71.5266,0.98404 72.0798,0.59042 C72.6436,0.1968 73.3032,0 74.0585,0 C74.867,0 75.5638,0.21276 76.1489,0.63829 C76.7447,1.06383 77.2021,1.67021 77.5213,2.45744 C77.8404,3.24468 78,4.17553 78,5.24998 L78,13.14898 C78,13.26598 77.9574,13.36698 77.8723,13.45208 C77.7979,13.52658 77.7021,13.56378 77.5851,13.56378 L75.0319,13.56378 C74.9149,13.56378 74.8138,13.52658 74.7287,13.45208 C74.6543,13.36698 74.617,13.26598 74.617,13.14898 L74.617,5.50528 C74.617,4.72868 74.4574,4.13297 74.1383,3.71808 C73.8191,3.30319 73.367,3.09574 72.7819,3.09574 C72.133,3.09574 71.6383,3.34042 71.2979,3.82978 C70.9574,4.31914 70.7872,5.02658 70.7872,5.95208 L70.7872,13.14898 C70.7872,13.26598 70.7447,13.36698 70.6596,13.45208 C70.5851,13.52658 70.4894,13.56378 70.3723,13.56378 L67.8191,13.56378 C67.7021,13.56378 67.6011,13.52658 67.516,13.45208 C67.4415,13.36698 67.4042,13.26598 67.4042,13.14898 L67.4042,0.70212 Z" id="Shape"></path>
            <path d="M8.87269,15.39848 C8.67056,15.55808 8.628,15.82398 8.74503,16.19638 C8.85141,16.52618 9.10141,16.93568 9.49503,17.42508 C11.0801,19.38258 12.9684,21.01018 15.1599,22.30808 C17.3514,23.60598 19.6972,24.56338 22.1972,25.18038 C24.7078,25.80808 27.2716,26.12188 29.8886,26.12188 C33.2397,26.12188 36.4312,25.63258 39.4631,24.65378 C42.495,23.68568 45.0269,22.32398 47.0589,20.56868 C47.7716,19.94108 48.128,19.44108 48.128,19.06868 C48.128,18.93038 48.0695,18.79208 47.9525,18.65378 C47.7929,18.49428 47.6014,18.44108 47.378,18.49428 C47.1546,18.54738 46.8408,18.68038 46.4365,18.89318 C44.4897,19.91448 42.1174,20.72828 39.3195,21.33468 C36.5323,21.95168 33.6227,22.26018 30.5908,22.26018 C26.8355,22.26018 23.2078,21.74958 19.7078,20.72828 C16.2078,19.70698 13.1067,18.11128 10.4046,15.94108 C10.011,15.63258 9.6918,15.43568 9.44715,15.35058 C9.21311,15.26548 9.02162,15.28148 8.87269,15.39848 Z" id="Path"></path>
            <path d="M44.3295,16.19728 C44.1061,16.41008 44.0476,16.63348 44.154,16.86758 C44.2285,17.03778 44.3721,17.13348 44.5849,17.15478 C44.7976,17.18668 45.1008,17.16538 45.4944,17.09098 C46.1327,16.95268 46.7976,16.85688 47.4891,16.80368 C48.1806,16.76118 48.7817,16.77178 49.2923,16.83558 C49.803,16.91008 50.1221,17.03778 50.2498,17.21858 C50.4413,17.50588 50.3721,18.11218 50.0423,19.03778 C49.7232,19.96328 49.287,20.86218 48.7338,21.73458 C48.521,22.08558 48.3934,22.36218 48.3508,22.56438 C48.3083,22.76648 48.3615,22.93668 48.5104,23.07498 C48.6061,23.17068 48.7125,23.21858 48.8295,23.21858 C49.1381,23.21858 49.5849,22.94728 50.17,22.40478 C51.2232,21.48988 51.9625,20.40478 52.3881,19.14948 C52.6221,18.50048 52.7657,17.81968 52.8189,17.10688 C52.8721,16.39418 52.7923,15.88348 52.5795,15.57498 C52.3774,15.27708 51.9306,15.03238 51.2391,14.84098 C50.5583,14.64948 49.8721,14.55368 49.1806,14.55368 C47.8295,14.55368 46.5476,14.87288 45.3349,15.51118 C44.8881,15.75588 44.553,15.98458 44.3295,16.19728 Z" id="Path"></path>
        </g>
    </g>
</svg>