<svg width="187" height="40" viewBox="0 0 187 40" fill="none" xmlns="http://www.w3.org/2000/svg">
<g clip-path="url(#clip0_14506_56733)">
<path d="M15.9668 1.14258C23.691 1.14258 29.745 7.2709 29.7451 15.0889C29.7451 22.9069 23.693 29.0312 15.9688 29.0312H13.6797C13.2512 29.031 12.9014 28.6844 12.9014 28.2559V24.3691C12.9014 23.9406 13.2512 23.594 13.6797 23.5938H15.1553C19.8442 23.5938 23.6664 19.8544 23.7314 15.2324C23.8003 10.4729 19.7854 6.58023 15.001 6.58008H14.459V9.18652H14.6582C17.8945 9.18657 20.5185 11.8546 20.4209 15.0947C20.329 18.2124 17.6719 20.6543 14.5352 20.6543H13.6797C13.2244 20.654 12.8594 20.2677 12.9053 19.8047C12.9436 19.4028 13.3053 19.1064 13.7129 19.1064H14.6562C17.0313 19.1064 18.9513 17.1406 18.8613 14.7598C18.7752 12.4957 16.8302 10.7373 14.5527 10.7373H13.7754C13.5843 10.7372 13.4102 10.6664 13.2744 10.5498C13.0505 10.4139 12.8994 10.17 12.8994 9.89062V5.80664C12.8996 5.37806 13.2501 5.03223 13.6787 5.03223H14.9893C20.6446 5.03225 25.3694 9.635 25.2871 15.2598C25.2065 20.7217 20.6918 25.1426 15.1533 25.1426H14.457V27.4795H15.9668C22.8184 27.4795 28.1855 22.0341 28.1855 15.085C28.1854 8.13591 22.8183 2.69141 15.9668 2.69141H10.7617C10.4365 2.69141 10.1741 2.95312 10.1738 3.27637V38.6445C10.1738 39.0731 9.82591 39.4197 9.39551 39.4199H5.0625C4.63189 39.4199 4.2832 39.0713 4.2832 38.6445V2.72363H1.55762V38.6445C1.55762 39.0962 1.16721 39.46 0.702148 39.416C0.298507 39.3757 0.000104167 39.0159 0 38.6104V1.94824C0.000185385 1.5197 0.348797 1.17574 0.779297 1.17383H5.06641C5.49478 1.17408 5.84454 1.51986 5.84473 1.94824V37.8711H8.61816V1.9502C8.61827 1.66899 8.76933 1.42587 8.99316 1.29004C9.11934 1.1983 9.27614 1.14268 9.44434 1.14258H15.9668ZM118.53 11.5596C119.547 11.5596 120.424 11.697 121.14 11.9707C121.855 12.2444 122.454 12.5955 122.921 13.0146C123.388 13.4317 123.753 13.8963 124.01 14.3975C124.115 14.6022 124.208 14.8078 124.284 15.0049C124.345 15.1598 124.337 15.3285 124.263 15.4814C124.186 15.6402 124.042 15.7628 123.872 15.8145L122.518 16.2275C122.208 16.3194 121.872 16.1585 121.736 15.8389C121.599 15.5213 121.392 15.2249 121.122 14.957C120.852 14.6872 120.504 14.4612 120.085 14.2832C119.666 14.1071 119.151 14.0166 118.558 14.0166C118.116 14.0166 117.703 14.0838 117.34 14.2158C116.974 14.3498 116.653 14.532 116.391 14.7578C116.125 14.9854 115.917 15.2476 115.77 15.54C115.62 15.8385 115.543 16.1604 115.543 16.4971C115.543 17.0368 115.723 17.5161 116.079 17.918C116.431 18.314 116.966 18.5869 117.666 18.7285L120.113 19.1982C120.871 19.3399 121.553 19.5709 122.135 19.8828C122.715 20.1948 123.204 20.5684 123.595 20.9951C123.933 21.3652 124.204 21.7789 124.401 22.2266L124.486 22.4229C124.685 22.9472 124.789 23.5001 124.789 24.0703C124.789 24.7019 124.655 25.3319 124.391 25.9424C124.127 26.5528 123.737 27.1025 123.231 27.5732C122.722 28.046 122.084 28.4358 121.338 28.7344C120.592 29.0309 119.713 29.1826 118.731 29.1826C117.604 29.1826 116.624 29.0197 115.818 28.6982C115.013 28.3767 114.33 27.9594 113.788 27.4619C113.25 26.9624 112.833 26.4015 112.554 25.7891C112.404 25.4676 112.286 25.1438 112.198 24.8262C112.152 24.6599 112.173 24.488 112.259 24.3389C112.345 24.1915 112.481 24.086 112.647 24.042L114.065 23.667C114.117 23.6536 114.169 23.6455 114.223 23.6455C114.493 23.6455 114.745 23.826 114.835 24.1035C114.877 24.2354 114.927 24.3671 114.984 24.4951C115.17 24.9198 115.436 25.3007 115.772 25.626C116.109 25.9513 116.533 26.2159 117.024 26.4092C117.514 26.6006 118.098 26.6982 118.755 26.6982C119.74 26.6982 120.508 26.4743 121.042 26.0342C121.589 25.5826 121.868 24.9951 121.868 24.291C121.868 23.713 121.659 23.2072 121.246 22.7861C120.846 22.3806 120.265 22.1035 119.524 21.9619L117.076 21.4697C115.738 21.2037 114.659 20.6542 113.87 19.8389C113.091 19.0351 112.697 17.9937 112.697 16.7441C112.697 16.019 112.85 15.3357 113.152 14.7119C113.457 14.0843 113.88 13.5295 114.41 13.0645C114.942 12.5975 115.57 12.226 116.278 11.96C116.986 11.694 117.744 11.5596 118.53 11.5596ZM132.347 16.2158C133.17 16.2158 133.916 16.335 134.564 16.5723C135.215 16.8096 135.786 17.119 136.261 17.4941C136.733 17.8673 137.121 18.304 137.414 18.7881C137.521 18.9641 137.617 19.1423 137.701 19.3203C137.797 19.5194 137.803 19.7492 137.717 19.9502C137.633 20.147 137.472 20.2944 137.268 20.3633L135.962 20.7998C135.621 20.9146 135.252 20.7687 135.062 20.4453C134.904 20.1755 134.702 19.9149 134.463 19.6719C133.994 19.1956 133.307 18.9551 132.425 18.9551C131.958 18.9551 131.518 19.0366 131.114 19.1973C130.709 19.3599 130.348 19.6012 130.04 19.915C129.734 20.227 129.489 20.6199 129.31 21.083C129.132 21.5423 129.041 22.0686 129.041 22.6484C129.041 23.2283 129.132 23.7565 129.31 24.2158C129.489 24.6769 129.738 25.075 130.054 25.3965C130.368 25.718 130.733 25.9633 131.141 26.126C131.544 26.2867 132.002 26.3691 132.45 26.3691C132.898 26.3691 133.303 26.2998 133.655 26.1641C134.005 26.0301 134.312 25.852 134.566 25.6357C134.821 25.4195 135.028 25.1728 135.188 24.8916C135.376 24.5586 135.749 24.4076 136.096 24.5225L137.338 24.9375C137.546 25.0064 137.707 25.1575 137.791 25.3584C137.877 25.5613 137.868 25.7931 137.769 25.9922C137.684 26.1605 137.589 26.3307 137.483 26.499C137.181 26.9794 136.787 27.4161 136.312 27.7988C135.836 28.1816 135.271 28.497 134.63 28.7324C133.991 28.9697 133.256 29.0888 132.45 29.0889C131.56 29.0889 130.712 28.9279 129.932 28.6084C129.149 28.2888 128.462 27.8368 127.888 27.2646C127.312 26.6944 126.854 26.0094 126.524 25.2324C126.195 24.4574 126.029 23.5862 126.029 22.6523C126.029 21.7184 126.192 20.8452 126.514 20.0586C126.833 19.2742 127.282 18.5908 127.849 18.0264C128.415 17.4618 129.091 17.0159 129.854 16.6963C130.618 16.3767 131.457 16.2158 132.347 16.2158ZM59.1289 16.2129C60.0359 16.2129 60.8911 16.3738 61.6719 16.6934C62.355 16.973 62.9635 17.3505 63.4844 17.8174L63.7041 18.0234C64.2706 18.588 64.7204 19.2729 65.04 20.0557C65.3615 20.8421 65.5244 21.7127 65.5244 22.6484C65.5244 23.5843 65.3616 24.4535 65.04 25.2305C64.7204 26.0075 64.2706 26.6905 63.7021 27.2627C63.1357 27.8349 62.4527 28.2849 61.6719 28.6045C60.8911 28.924 60.0359 29.0849 59.1289 29.085C58.2217 29.085 57.3658 28.9241 56.585 28.6045C55.8042 28.2849 55.1231 27.8349 54.5566 27.2627C53.9883 26.6905 53.5383 26.0075 53.2188 25.2305C52.8972 24.4535 52.7344 23.5824 52.7344 22.6484C52.7344 21.7146 52.8992 20.8421 53.2188 20.0557C53.5384 19.271 53.9882 18.588 54.5547 18.0234C55.1211 17.4608 55.8042 17.013 56.585 16.6934C57.3658 16.3737 58.2217 16.2129 59.1289 16.2129ZM93.2861 16.2129C95.1789 16.2129 96.6699 16.7737 97.7168 17.8799C98.7675 18.9899 99.2998 20.5421 99.2998 22.4961C99.2998 22.7237 99.2907 22.9458 99.2754 23.1543C99.2696 23.2289 99.2636 23.2941 99.2598 23.3477H90.6572C90.5501 23.3477 90.4467 23.3934 90.374 23.4736C90.3032 23.554 90.2708 23.6574 90.2822 23.7607C90.3205 24.1109 90.4213 24.4459 90.5801 24.7559C90.7696 25.1214 91.0149 25.443 91.3115 25.7109C91.6101 25.9808 91.9602 26.1935 92.3545 26.3447C92.7486 26.4978 93.1754 26.5742 93.623 26.5742C94.4631 26.5742 95.133 26.3826 95.6172 26C96.0017 25.6977 96.3043 25.3189 96.5205 24.8789C96.5645 24.7851 96.6799 24.737 96.7852 24.7676L98.8428 25.376C98.9058 25.3952 98.9538 25.4378 98.9844 25.4951C99.0148 25.5524 99.0161 25.6196 98.9932 25.6807C98.8516 26.0479 98.6621 26.4055 98.4307 26.7441C98.111 27.2073 97.7191 27.6135 97.2617 27.9561C96.8043 28.2967 96.2608 28.5745 95.6445 28.7793C95.0264 28.9822 94.3392 29.0849 93.5986 29.085C92.7604 29.085 91.9483 28.9394 91.1904 28.6523C90.4367 28.3691 89.7634 27.9424 89.1895 27.3877C88.6153 26.8327 88.1513 26.1456 87.8145 25.3438C87.4776 24.5419 87.3057 23.6168 87.3057 22.5986C87.3057 21.6285 87.4726 20.7386 87.8018 19.9541C88.1309 19.1695 88.5748 18.4936 89.126 17.9463C89.6752 17.399 90.3206 16.9684 91.0439 16.666C91.675 16.4033 92.3339 16.2532 93.0039 16.2197L93.2861 16.2129ZM160.062 16.2129C160.969 16.2129 161.825 16.3737 162.605 16.6934C163.289 16.973 163.897 17.3504 164.418 17.8174L164.638 18.0234C165.204 18.588 165.654 19.273 165.974 20.0557C166.295 20.8421 166.458 21.7128 166.458 22.6484C166.458 23.5842 166.295 24.4535 165.974 25.2305C165.652 26.0074 165.202 26.6905 164.636 27.2627C164.071 27.8348 163.388 28.2849 162.607 28.6045C161.827 28.9241 160.971 29.085 160.063 29.085C159.156 29.085 158.3 28.9241 157.52 28.6045C156.737 28.2849 156.056 27.8348 155.489 27.2627C154.921 26.6905 154.471 26.0074 154.151 25.2305C153.83 24.4535 153.667 23.5823 153.667 22.6484C153.667 21.7147 153.832 20.8421 154.151 20.0557C154.471 19.2711 154.921 18.588 155.487 18.0234C156.054 17.4608 156.738 17.013 157.519 16.6934C158.299 16.3738 159.154 16.2129 160.062 16.2129ZM174.553 16.2129C175.46 16.2129 176.315 16.3738 177.096 16.6934C177.779 16.973 178.388 17.3503 178.909 17.8174L179.129 18.0234C179.695 18.588 180.145 19.2711 180.465 20.0557C180.786 20.8421 180.948 21.7128 180.948 22.6484C180.948 23.5842 180.786 24.4535 180.465 25.2305C180.143 26.0073 179.693 26.6905 179.127 27.2627C178.562 27.8349 177.879 28.2849 177.098 28.6045C176.317 28.924 175.462 29.0849 174.555 29.085C173.648 29.085 172.792 28.9241 172.011 28.6045C171.23 28.2849 170.547 27.8348 169.98 27.2627C169.412 26.6905 168.962 26.0074 168.643 25.2305C168.321 24.4535 168.158 23.5823 168.158 22.6484C168.158 21.7147 168.321 20.8421 168.643 20.0557C168.962 19.2711 169.412 18.588 169.979 18.0234C170.545 17.4609 171.228 17.013 172.009 16.6934C172.79 16.3737 173.646 16.2129 174.553 16.2129ZM109.838 16.6875C109.899 16.6857 109.958 16.7081 110 16.748C110.036 16.7844 110.058 16.8311 110.058 16.8789V19.6914C107.796 19.6972 105.519 21.0011 105.519 23.9062V28.7363C105.519 28.8684 105.401 28.9756 105.258 28.9756H102.771C102.63 28.9754 102.514 28.8683 102.514 28.7363V17.0928C102.514 16.9876 102.605 16.9035 102.72 16.9033H105.31C105.422 16.9033 105.517 16.9875 105.517 17.0928V19.416L105.884 18.5781C106.796 17.1615 107.767 16.8248 109.193 16.7217L109.838 16.6875ZM69.4443 16.7236C69.5742 16.7238 69.6892 16.8095 69.7256 16.9336L72.2021 25.4082H72.2539L74.8047 16.9316C74.8412 16.8094 74.9579 16.7256 75.0859 16.7256H77.8994C78.0294 16.7256 78.1423 16.8094 78.1807 16.9316L80.7568 25.4082H80.8086L83.335 16.9316C83.3715 16.8075 83.4881 16.7236 83.6162 16.7236H86.1572C86.3582 16.7236 86.5006 16.9209 86.4355 17.1104L82.583 28.1914C82.4471 28.5798 82.0793 28.8397 81.668 28.8398H79.9648C79.5457 28.8398 79.1722 28.57 79.0439 28.1738L76.4941 20.3574H76.4434L73.917 28.1719C73.7869 28.57 73.4152 28.8398 72.9941 28.8398H71.293C70.8797 28.8398 70.512 28.5798 70.3779 28.1934L66.501 17.1104C66.4359 16.9209 66.5755 16.7217 66.7783 16.7217L69.4443 16.7236ZM142.862 10.7041C143.044 10.7041 143.193 10.8515 143.193 11.0332V17.9727L143.532 17.5654C143.915 17.1042 144.411 16.7694 145.004 16.5703C145.609 16.3674 146.208 16.2637 146.78 16.2637C147.55 16.2637 148.223 16.3899 148.782 16.6406C149.271 16.8583 149.69 17.1454 150.03 17.4932L150.17 17.6455C150.534 18.0627 150.806 18.5687 150.986 19.1523C151.166 19.7398 151.259 20.371 151.259 21.0254V28.377C151.259 28.5585 151.109 28.7059 150.928 28.7061H148.579C148.397 28.7061 148.248 28.5586 148.248 28.377V21.6094C148.248 20.8592 148.049 20.224 147.658 19.7168C147.256 19.1944 146.608 18.9297 145.733 18.9297C144.964 18.9297 144.349 19.1862 143.903 19.6934C143.469 20.189 143.23 20.8151 143.193 21.5576V28.375C143.193 28.5567 143.044 28.7041 142.862 28.7041H140.514C140.332 28.7039 140.183 28.5565 140.183 28.375V11.0332C140.183 10.8516 140.332 10.7044 140.514 10.7041H142.862ZM46.5986 11.083C47.456 11.083 48.2489 11.2214 48.9551 11.4912C49.5713 11.7257 50.119 12.0462 50.5859 12.4434L50.7783 12.6162C51.2855 13.0966 51.6784 13.6707 51.9463 14.3271C52.218 14.9873 52.3535 15.7184 52.3535 16.5029C52.3535 17.2875 52.2161 18.0245 51.9463 18.6924C51.6784 19.3565 51.2855 19.9306 50.7803 20.4014C50.2751 20.8721 49.6612 21.2477 48.9551 21.5176C48.2489 21.7874 47.456 21.9229 46.5986 21.9229H43.165V28.3379C43.165 28.5388 43.0007 28.7021 42.7979 28.7021H40.3926C40.1897 28.7021 40.0264 28.5388 40.0264 28.3379V11.5732C40.0264 11.3034 40.2468 11.0831 40.5186 11.083H46.5986ZM185.895 10.7041C186.109 10.7041 186.285 10.8785 186.285 11.0928V28.3115C186.285 28.5259 186.111 28.7002 185.895 28.7002H183.665C183.449 28.7002 183.274 28.5278 183.274 28.3115V11.0908C183.275 10.8766 183.449 10.7021 183.665 10.7021L185.895 10.7041ZM60.3975 19.1445C59.5745 18.8249 58.6804 18.8249 57.8574 19.1445C57.4422 19.3053 57.0747 19.5466 56.7686 19.8623C56.4643 20.1723 56.2139 20.5652 56.0264 21.0283C55.8389 21.4894 55.7452 22.0325 55.7451 22.6465C55.7451 23.2607 55.8389 23.8083 56.0264 24.2676C56.2139 24.7307 56.4624 25.1236 56.7686 25.4355C57.0747 25.7494 57.4422 25.9906 57.8574 26.1533C58.2689 26.3141 58.6963 26.3945 59.127 26.3945C59.5574 26.3945 59.9842 26.314 60.3975 26.1533C60.8127 25.9907 61.1801 25.7494 61.4863 25.4355C61.7542 25.1627 61.9778 24.828 62.1553 24.4385L62.2285 24.2695C62.416 23.8083 62.5117 23.2627 62.5117 22.6484C62.5117 22.0344 62.416 21.4913 62.2285 21.0283C62.041 20.569 61.7925 20.1762 61.4863 19.8623C61.1782 19.5465 60.8127 19.3053 60.3975 19.1445ZM161.33 19.1445C160.505 18.8251 159.614 18.8251 158.791 19.1445C158.376 19.3053 158.01 19.5466 157.702 19.8623C157.398 20.1743 157.147 20.5671 156.959 21.0283C156.772 21.4893 156.678 22.0326 156.678 22.6465C156.678 23.2606 156.772 23.8083 156.959 24.2676C157.147 24.7307 157.398 25.1236 157.702 25.4355C158.008 25.7493 158.376 25.9907 158.791 26.1533C159.202 26.314 159.629 26.3945 160.06 26.3945C160.49 26.3945 160.917 26.314 161.33 26.1533C161.745 25.9907 162.113 25.7493 162.419 25.4355C162.685 25.1626 162.911 24.8281 163.089 24.4385L163.162 24.2695C163.35 23.8084 163.443 23.2626 163.443 22.6484C163.443 22.0345 163.349 21.4913 163.162 21.0283C162.975 20.569 162.725 20.1762 162.419 19.8623C162.111 19.5466 161.745 19.3053 161.33 19.1445ZM175.821 19.1426C174.999 18.8231 174.105 18.8231 173.282 19.1426C172.867 19.3053 172.501 19.5465 172.192 19.8604C171.886 20.1742 171.638 20.5672 171.45 21.0283C171.263 21.4893 171.169 22.0325 171.169 22.6465C171.169 23.2607 171.263 23.8064 171.45 24.2676C171.638 24.7306 171.888 25.1236 172.192 25.4355C172.499 25.7494 172.867 25.9906 173.282 26.1533C173.694 26.314 174.12 26.3945 174.551 26.3945C174.981 26.3945 175.408 26.314 175.821 26.1533C176.236 25.9907 176.604 25.7493 176.91 25.4355C177.214 25.1217 177.466 24.7288 177.653 24.2676C177.841 23.8064 177.935 23.2606 177.935 22.6465C177.935 22.0325 177.841 21.4893 177.653 21.0264C177.466 20.567 177.216 20.1742 176.91 19.8604C176.602 19.5447 176.237 19.3033 175.821 19.1426ZM93.3457 18.5742C92.877 18.5742 92.4563 18.6568 92.0928 18.8193C91.733 18.9801 91.4225 19.1907 91.168 19.4434C90.9154 19.6941 90.7159 19.979 90.5781 20.2871C90.4939 20.4785 90.4308 20.6739 90.3906 20.8672C90.3639 21.003 90.3984 21.1409 90.4863 21.248C90.5763 21.3571 90.707 21.418 90.8467 21.418H95.8516C95.9519 21.4179 96.0487 21.3844 96.1289 21.3242L96.207 21.2578C96.295 21.1546 96.3333 21.0186 96.3105 20.8848C96.2761 20.6743 96.2182 20.4655 96.1436 20.2607C96.023 19.9393 95.8376 19.6502 95.5889 19.4053C95.342 19.1603 95.0284 18.9568 94.6572 18.8037C94.2859 18.6525 93.8433 18.5742 93.3457 18.5742ZM43.7188 13.749C43.4279 13.749 43.1905 13.9845 43.1904 14.2734V19.2842H46.1641C47.0362 19.2842 47.7457 19.062 48.2725 18.624L48.377 18.5361C48.9185 18.0348 49.1923 17.3952 49.1924 16.5303C49.1924 15.6653 48.9165 14.9762 48.375 14.4844C47.8372 13.9963 47.0942 13.749 46.1641 13.749H43.7188Z" fill="#026AF2"/>
</g>
<defs>
<clipPath id="clip0_14506_56733">
<rect width="186.286" height="40" fill="white"/>
</clipPath>
</defs>
</svg>
